# AST/ASF file generated using VICON BodyLanguage
# -----------------------------------------------
:version 1.10
:name VICON
:units
  mass 1.0
  length 0.45
  angle deg
:documentation
   .ast/.asf automatically generated from VICON data using
   VICON BodyBuilder and BodyLanguage model FoxedUp or BRILLIANT.MOD
:root
   order TX TY TZ RX RY RZ
   axis XYZ
   position 0 0 0  
   orientation 0 0 0 
:bonedata
  begin
     id 1 
     name lhipjoint
     direction 0.578396 -0.714046 0.394458 
     length 2.21935 
     axis 0 0 0  XYZ
  end
  begin
     id 2 
     name lfemur
     direction 0.34202 -0.939693 0  
     length 6.39105  
     axis 0 0 20  XYZ
    dof rx ry rz
    limits (-160.0 20.0)
           (-70.0 70.0)
           (-60.0 70.0)
  end
  begin
     id 3 
     name ltibia
     direction 0.34202 -0.939693 0   
     length 6.99037   
     axis 0 0 20   XYZ
    dof rx
    limits (-10.0 170.0)
  end
  begin
     id 4 
     name lfoot
     direction 0.0582372 -0.160005 0.985397   
     length 2.06111   
     axis -90 7.62852e-016 20   XYZ
    dof rx rz
    limits (-45.0 90.0)
           (-70.0 20.0)
  end
  begin
     id 5 
     name ltoes
     direction 1.53556e-011 -4.21875e-011 1   
     length 1.04074   
     axis -90 7.62852e-016 20   XYZ
    dof rx
    limits (-90.0 20.0)
  end
  begin
     id 6 
     name rhipjoint
     direction -0.558179 -0.726269 0.40121   
     length 2.182  
     axis 0 0 0  XYZ 
  end
  begin
     id 7 
     name rfemur
     direction -0.34202 -0.939693 0   
     length 6.51172   
     axis 0 0 -20   XYZ
    dof rx ry rz
    limits (-160.0 20.0)
           (-70.0 70.0)
           (-70.0 60.0)
  end
  begin
     id 8 
     name rtibia
     direction -0.34202 -0.939693 0   
     length 7.02607   
     axis 0 0 -20   XYZ
    dof rx
    limits (-10.0 170.0)
 end
 begin
     id 9 
     name rfoot
     direction -0.0788856 -0.216737 0.973038   
     length 1.96734  
     axis -90 -7.62852e-016 -20   XYZ
    dof rx rz
    limits (-45.0 90.0)
           (-20.0 70.0)
  end
  begin
     id 10 
     name rtoes
     direction -1.53567e-011 -4.21783e-011 1   
     length 0.990825   
     axis -90 -7.62852e-016 -20   XYZ
    dof rx
    limits (-90.0 20.0)
  end
  begin
     id 11 
     name lowerback
     direction 0.00668177 0.999323 -0.0361741   
     length 1.7655   
     axis 0 0 0   XYZ
    dof rx ry rz
    limits (-20.0 45.0)
           (-30.0 30.0)
           (-30.0 30.0)
  end
  begin
     id 12 
     name upperback
     direction -0.00222086 0.99851 0.0545167   
     length 1.74912   
     axis 0 0 0   XYZ
    dof rx ry rz
    limits (-20.0 45.0)
           (-30.0 30.0)
           (-30.0 30.0)
  end
  begin
     id 13 
     name thorax
     direction -0.00733971 0.997496 0.0703443   
     length 1.75715   
     axis 0 0 0   XYZ
    dof rx ry rz
    limits (-20.0 45.0)
           (-30.0 30.0)
           (-30.0 30.0)
  end
  begin
     id 14 
     name lowerneck
     direction 0.0279797 0.994795 0.0979765   
     length 1.46939   
     axis 0 0 0   XYZ
    dof rx ry rz
    limits (-20.0 45.0)
           (-30.0 30.0)
           (-30.0 30.0)
  end
  begin
     id 15 
     name upperneck
     direction 0.00339187 0.976776 -0.214238   
     length 1.48018   
     axis 0 0 0   XYZ
    dof rx ry rz
    limits (-20.0 45.0)
           (-30.0 30.0)
           (-30.0 30.0)
  end
  begin
     id 16
     name head
     direction -0.00263506 0.996603 -0.0823096  
     length 1.4976  
     axis 0 0 0   XYZ
    dof rx ry rz
    limits (-20.0 45.0)
           (-30.0 30.0)
           (-30.0 30.0)
  end
  begin
     id 17 
     name lclavicle
     direction 0.894044 0.44508 -0.0508781  
     length 3.03024  
     axis 0 0 0   XYZ
    dof ry rz
    limits (-20.0 10.0)
           (0.0 20.0)
  end
  begin
     id 18 
     name lhumerus
     direction 1 -4.48961e-011 -2.39475e-018   
     length 4.4661   
     axis 180 -30 -90   XYZ
    dof rx ry rz
    limits (-60.0 90.0)
           (-90.0 90.0)
           (-90.0 90.0)
  end
  begin
     id 19
     name lradius
     direction 1 -4.48961e-011 9.29328e-028   
     length 3.41414   
     axis 180 -30 -90   XYZ
    dof rx
    limits (-10.0 170.0)
  end
  begin
     id 20
     name lwrist
     direction 1 -4.48985e-011 1.53461e-026   
     length 1.70707   
     axis -1.09697e-014 90 90   XYZ
    dof ry
    limits (-180.0 0.0)
 end
  begin
     id 21 
     name lhand
     direction 1 -4.48966e-011 3.06923e-026   
     length 0.328298   
     axis -1.95843e-014 90 90   XYZ
    dof rx rz
    limits (-90.0 90.0)
           (-45.0 45.0)
  end
  begin
     id 22 
     name lfingers
     direction 1 -4.48893e-011 6.13845e-026   
     length 0.264682   
     axis -3.91686e-014 90 90   XYZ
    dof rx
    limits (0.0 90.0)
  end
  begin
     id 23
     name lthumb
     direction 0.707107 -6.34876e-011 0.707107   
     length 0.380032   
     axis -90 45 2.85299e-015   XYZ
    dof rx rz
    limits (-45.0 45.0)
           (-45.0 45.0)
  end
  begin
     id 24 
     name rclavicle
     direction -0.936955 0.347862 -0.0332887   
     length 3.26927  
     axis 0 0 0   XYZ 
    dof ry rz
    limits (-10.0 20.0)
           (-20.0 0.0)
  end
  begin
     id 25 
     name rhumerus
     direction -1 -4.4896e-011 1.78637e-018  
     length 4.40431   
     axis 180 30 90   XYZ
    dof rx ry rz
    limits (-90.0 60.0)
           (-90.0 90.0)
           (-90.0 90.0)
  end
  begin
     id 26 
     name rradius
     direction -1 -4.48955e-011 9.34036e-027   
     length 3.04688   
     axis 180 30 90   XYZ
    dof rx
    limits (-10.0 170.0)
  end
  begin
     id 27 
     name rwrist
     direction -1 -4.49011e-011 1.53461e-026   
     length 1.52344   
     axis -1.09697e-014 -90 -90   XYZ
    dof ry
    limits (-180.0 0.0)
  end
  begin
     id 28
     name rhand
     direction -1 -4.48834e-011 3.06923e-026   
     length 0.500489   
     axis -1.95843e-014 -90 -90   XYZ
    dof rx rz
    limits (-90.0 90.0)
           (-45.0 45.0)
  end
  begin
     id 29
     name rfingers
     direction -1 -4.48967e-011 6.13845e-026   
     length 0.403507   
     axis -3.91686e-014 -90 -90   XYZ
    dof rx
    limits (0.0 90.0)
  end
  begin
     id 30
     name rthumb
     direction -0.707107 -6.34826e-011 0.707107   
     length 0.579358   
     axis -90 -45 -2.85299e-015   XYZ
    dof rx rz
    limits (-45.0 45.0)
           (-45.0 45.0)
  end
:hierarchy
  begin
    root lhipjoint rhipjoint lowerback
    lhipjoint lfemur
    lfemur ltibia
    ltibia lfoot
    lfoot ltoes
    rhipjoint rfemur
    rfemur rtibia
    rtibia rfoot
    rfoot rtoes
    lowerback upperback
    upperback thorax
    thorax lowerneck lclavicle rclavicle
    lowerneck upperneck
    upperneck head
    lclavicle lhumerus
    lhumerus lradius
    lradius lwrist
    lwrist lhand lthumb
    lhand lfingers
    rclavicle rhumerus
    rhumerus rradius
    rradius rwrist
    rwrist rhand rthumb
    rhand rfingers
  end

#!OML:ASF H:\IndianDance\Patient Classification 1\Patient 1\Session 1\dancer.ASF
:FULLY-SPECIFIED
:DEGREES
375
root 11.4758 13.7498 3.28831 189.504 -74.3625 -186.98
lowerback 17.7674 2.54103 5.08253
upperback -0.493958 4.71971 4.03819
thorax -10.4862 2.02099 0.31131
lowerneck -15.5004 -11.1706 -6.97653
upperneck 9.87659 -15.2162 10.6559
head 6.91004 -6.83523 2.7924
rclavicle -1.03368e-014 -1.59028e-014
rhumerus -15.9656 16.139 -51.4512
rradius 106.226
rwrist 9.01246
rhand -45.4372 64.7
rfingers 7.12502
rthumb -18.2043 35.5319
lclavicle -1.03368e-014 -1.59028e-014
lhumerus -12.3746 -30.5182 16.8428
lradius 104.503
lwrist 28.8846
lhand -31.0912 53.373
lfingers 7.12502
lthumb -4.37119 83.3079
rfemur -58.1415 -29.371 13.5389
rtibia 80.6194
rfoot -1.53756 -3.03987
rtoes 20.8114
lfemur -32.0553 27.7648 -27.8578
ltibia 66.1726
lfoot -34.1337 16.8933
ltoes 8.47296
376
root 11.4842 13.7577 3.33645 189.919 -73.9474 -187.289
lowerback 18.283 2.57276 5.18959
upperback -0.255641 4.8182 4.37027
thorax -10.5335 2.06032 0.571329
lowerneck -15.4527 -11.2201 -7.07095
upperneck 9.24089 -15.2016 10.741
head 6.71083 -6.84481 2.84918
rclavicle -9.14409e-015 3.65764e-014
rhumerus -16.8833 14.8918 -53.051
rradius 105.649
rwrist 8.06266
rhand -45.2403 64.2609
rfingers 7.12502
rthumb -18.0149 35.0752
lclavicle -9.14409e-015 3.65764e-014
lhumerus -12.3781 -31.3085 17.2257
lradius 106.035
lwrist 26.2332
lhand -31.5176 52.249
lfingers 7.12502
lthumb -4.7829 82.175
rfemur -59.4469 -29.5335 13.7558
rtibia 80.7495
rfoot -1.33528 -3.7042
rtoes 21.8726
lfemur -32.2375 28.0169 -28.3484
ltibia 65.9932
lfoot -34.1334 16.974
ltoes 8.64579
377
root 11.491 13.7667 3.38295 190.429 -73.5621 -187.646
lowerback 18.7625 2.59834 5.28973
upperback -0.0454579 4.9065 4.69829
thorax -10.5918 2.09426 0.835458
lowerneck -15.3975 -11.2677 -7.16906
upperneck 8.65284 -15.1892 10.813
head 6.52581 -6.8554 2.90171
rclavicle 5.32743e-014 4.92986e-014
rhumerus -17.6744 13.5687 -54.4669
rradius 104.896
rwrist 6.75396
rhand -45.0285 63.6112
rfingers 7.12502
rthumb -17.8111 34.4069
lclavicle 5.32743e-014 4.92986e-014
lhumerus -12.3633 -32.1314 17.5752
lradius 107.469
lwrist 23.396
lhand -31.9113 51.0014
lfingers 7.12502
lthumb -5.1631 80.9185
rfemur -60.7302 -29.6787 13.9982
rtibia 80.6832
rfoot -1.43009 -4.63416
rtoes 22.72
lfemur -32.4638 28.255 -28.8709
ltibia 65.7959
lfoot -34.111 17.0336
ltoes 8.75266
378
root 11.4957 13.7767 3.42764 191.032 -73.2069 -188.052
lowerback 19.2002 2.61428 5.38832
upperback 0.134432 4.98067 5.01481
thorax -10.6594 2.12088 1.09398
lowerneck -15.3342 -11.3124 -7.2715
upperneck 8.12455 -15.181 10.887
head 6.36014 -6.86659 2.9542
rclavicle -1.31198e-014 -6.67916e-014
rhumerus -18.3294 12.1955 -55.6997
rradius 103.995
rwrist 5.07108
rhand -44.8 62.7971
rfingers 7.12502
rthumb -17.5912 33.5729
lclavicle -1.31198e-014 -6.67916e-014
lhumerus -12.3404 -32.9761 17.8773
lradius 108.816
lwrist 20.4628
lhand -32.2774 49.5941
lfingers 7.12502
lthumb -5.51659 79.5023
rfemur -61.9766 -29.7975 14.2529
rtibia 80.4087
rfoot -1.75429 -5.76656
rtoes 23.3761
lfemur -32.7331 28.4729 -29.4241
ltibia 65.5837
lfoot -34.0696 17.0696
ltoes 8.815
379
root 11.4987 13.7874 3.47059 191.714 -72.8751 -188.49
lowerback 19.5979 2.61849 5.48912
upperback 0.285621 5.03884 5.3172
thorax -10.735 2.13926 1.34249
lowerneck -15.2795 -11.3526 -7.37554
upperneck 7.6671 -15.1764 10.9691
head 6.22021 -6.87656 3.00713
rclavicle -3.1408e-014 2.54444e-014
rhumerus -18.8275 10.8115 -56.7589
rradius 102.958
rwrist 3.04447
rhand -44.6571 61.9864
rfingers 7.12502
rthumb -17.4536 32.7499
lclavicle -3.1408e-014 2.54444e-014
lhumerus -12.3162 -33.8161 18.1326
lradius 110.085
lwrist 17.5704
lhand -32.6747 48.0484
lfingers 7.12502
lthumb -5.90013 77.9463
rfemur -63.1773 -29.8753 14.5106
rtibia 79.9188
rfoot -2.24644 -7.02601
rtoes 23.8371
lfemur -33.051 28.671 -30.0068
ltibia 65.3615
lfoot -34.0094 17.0908
ltoes 8.83094
380
root 11.4999 13.7985 3.51187 192.477 -72.5622 -188.964
lowerback 19.9551 2.60931 5.59671
upperback 0.41258 5.07902 5.59956
thorax -10.8124 2.14847 1.57259
lowerneck -15.2455 -11.3893 -7.47182
upperneck 7.27959 -15.1773 11.0601
head 6.10703 -6.88552 3.05852
rclavicle 5.56597e-015 -6.36111e-015
rhumerus -19.1509 9.43639 -57.6586
rradius 101.799
rwrist 0.682688
rhand -44.5408 61.0728
rfingers 7.12502
rthumb -17.3418 31.8265
lclavicle 5.56597e-015 -6.36111e-015
lhumerus -12.2903 -34.6392 18.3384
lradius 111.283
lwrist 14.8141
lhand -33.1674 46.3659
lfingers 7.12502
lthumb -6.37578 76.25
rfemur -64.3167 -29.9062 14.7557
rtibia 79.207
rfoot -2.85199 -8.30889
rtoes 24.0576
lfemur -33.4162 28.8442 -30.6209
ltibia 65.1311
lfoot -33.9322 17.1017
ltoes 8.81019
